<svg width="471" height="524" viewBox="0 0 471 524" fill="none" xmlns="http://www.w3.org/2000/svg">
<g clip-path="url(#clip0_1_158)">
<mask id="mask0_1_158" style="mask-type:luminance" maskUnits="userSpaceOnUse" x="0" y="0" width="471" height="524">
<path d="M471 0.516602H0V523.483H471V0.516602Z" fill="white"/>
</mask>
<g mask="url(#mask0_1_158)">
<path opacity="0.1" d="M80.4506 140.569C81.0886 140.569 81.6058 140.052 81.6058 139.414C81.6058 138.776 81.0886 138.259 80.4506 138.259C79.8126 138.259 79.2953 138.776 79.2953 139.414C79.2953 140.052 79.8126 140.569 80.4506 140.569Z" fill="black"/>
<path d="M336.6 355.451L311.494 385.193L297.236 348.648L305.938 322.287L313.957 317.169L318.323 289.457L331.882 275.673L347.134 272.401L350.131 277.587L335.38 295.68L336.6 355.451Z" fill="url(#paint0_linear_1_158)"/>
<path d="M336.6 355.451L311.494 385.193L297.236 348.648L336.6 355.451L313.957 317.169L318.323 289.457L331.882 275.673L347.134 272.401L350.131 277.587L335.38 295.68L336.6 355.451Z" fill="url(#paint1_linear_1_158)"/>
<path d="M257.815 406.257L224.165 358.776L232.434 351.076L241.228 333.408L245.853 348.037H297.729L273.255 302.16L306.436 322.335L297.729 348.037L311.854 384.045L283.007 429.205L257.815 406.257Z" fill="url(#paint2_linear_1_158)"/>
<path d="M257.815 406.257L224.165 358.776L232.435 351.077L245.904 348.037L257.815 406.257L297.73 348.037L311.854 384.046L283.007 429.206L257.815 406.257Z" fill="url(#paint3_linear_1_158)"/>
<path d="M226.123 339.374L224.244 358.69L232.436 351.106L241.843 332.72L233.39 314.021L226.123 322.78L229.723 338.161L226.123 339.374Z" fill="url(#paint4_linear_1_158)"/>
<path d="M225.35 296.114L241.58 332.458L257.352 313.254L233.415 278.589L229.134 281.378L225.35 296.114Z" fill="url(#paint5_linear_1_158)"/>
<path d="M228.437 270.724L233.416 278.59L257.51 313.046L273.18 301.748L305.611 321.745L278.422 293.227L242.377 254.394L232.22 256.286L226.844 265.446L228.437 270.724Z" fill="url(#paint6_linear_1_158)"/>
<path d="M232.22 256.286L246.83 259.191L273.18 301.748L305.611 321.745L279.098 293.368L242.377 254.394L232.22 256.286Z" fill="url(#paint7_linear_1_158)"/>
<path d="M258.43 405.996L252.685 484.597H294.353L283.682 428.99L258.43 405.996Z" fill="url(#paint8_linear_1_158)"/>
<path d="M283.681 428.99L311.817 383.177L336.844 354.848L318.673 421.053L314.226 484.595H294.351L283.681 428.99Z" fill="url(#paint9_linear_1_158)"/>
<g opacity="0.2" filter="url(#filter0_f_1_158)">
<path d="M375.675 115.043H171.362V293.571H375.675V115.043Z" fill="url(#paint10_linear_1_158)"/>
</g>
<path d="M225.208 196.271L246.323 261.404L304.846 323.524L313.055 318.3L341.373 199.023C341.373 199.023 326.525 211.309 315.184 215.449C304.502 219.349 297.772 219.675 286.401 219.864C273.649 220.076 266.004 219.877 254.042 215.449C241.36 210.754 225.208 196.271 225.208 196.271Z" fill="url(#paint11_linear_1_158)"/>
<mask id="mask1_1_158" style="mask-type:alpha" maskUnits="userSpaceOnUse" x="1" y="92" width="341" height="141">
<path fill-rule="evenodd" clip-rule="evenodd" d="M330.996 205.452C364.712 130.272 308.904 92.8501 268.704 92.8501C233.756 92.8501 214.167 118.243 197.028 140.46C183.699 157.738 171.852 173.095 155.414 173.095C144.161 173.095 130.545 169.329 118.345 165.955C108.443 163.216 99.4734 160.736 93.4568 160.736C80.0278 160.736 61.6923 168.831 55.0291 173.095C83.1303 168.837 100.599 180.825 116.552 191.772C124.723 197.378 132.495 202.712 141.094 205.452C131.732 202.756 108.422 197.363 90.0864 197.363C69.6409 197.363 23.5299 216.687 1.77875 232.865C57.6423 204.481 87.6365 214.24 116.71 223.699C130.906 228.318 144.882 232.865 161.544 232.865C187.947 233.497 209.797 222.388 230.882 211.667C261.888 195.903 291.241 180.978 330.996 205.452ZM116.437 142.374C139.384 146.435 162.249 143.052 183.365 124.311C183.365 124.311 169.422 180.951 116.437 142.374Z" fill="#D9D9D9"/>
</mask>
<g mask="url(#mask1_1_158)">
<g opacity="0.67" filter="url(#filter1_f_1_158)">
<path d="M228.183 220.679C228.183 250.273 252.173 274.263 281.767 274.263C311.36 274.263 335.351 250.273 335.351 220.679C335.351 191.086 311.36 167.095 281.767 167.095C252.173 167.095 228.183 191.086 228.183 220.679Z" fill="#5EE2FF"/>
</g>
<g filter="url(#filter2_f_1_158)">
<path d="M102.861 247.254C148.628 247.254 185.729 216.971 185.729 179.616C185.729 142.26 148.628 111.977 102.861 111.977C57.0944 111.977 19.9932 142.26 19.9932 179.616C19.9932 216.971 57.0944 247.254 102.861 247.254Z" fill="#DBFFA0"/>
</g>
<g filter="url(#filter3_f_1_158)">
<path d="M265.145 148.205C299.427 148.205 327.217 125.522 327.217 97.5403C327.217 69.5588 299.427 46.8752 265.145 46.8752C230.863 46.8752 203.073 69.5588 203.073 97.5403C203.073 125.522 230.863 148.205 265.145 148.205Z" fill="#E3FF72"/>
</g>
</g>
<path d="M138.029 249.226C139.118 249.226 140.001 248.343 140.001 247.254C140.001 246.165 139.118 245.282 138.029 245.282C136.94 245.282 136.057 246.165 136.057 247.254C136.057 248.343 136.94 249.226 138.029 249.226Z" fill="black"/>
<path d="M235.605 80.4661C236.694 80.4661 237.577 79.5832 237.577 78.4942C237.577 77.4051 236.694 76.5222 235.605 76.5222C234.516 76.5222 233.633 77.4051 233.633 78.4942C233.633 79.5832 234.516 80.4661 235.605 80.4661Z" fill="black"/>
<path d="M109.635 117.015C110.724 117.015 111.607 116.132 111.607 115.043C111.607 113.954 110.724 113.071 109.635 113.071C108.546 113.071 107.663 113.954 107.663 115.043C107.663 116.132 108.546 117.015 109.635 117.015Z" fill="black"/>
<path opacity="0.2" d="M209.259 95.3254C209.943 95.3254 210.497 94.7715 210.497 94.0881C210.497 93.4048 209.943 92.8508 209.259 92.8508C208.576 92.8508 208.022 93.4048 208.022 94.0881C208.022 94.7715 208.576 95.3254 209.259 95.3254Z" fill="black"/>
<path opacity="0.2" d="M354.663 220.351C355.346 220.351 355.9 219.797 355.9 219.114C355.9 218.43 355.346 217.876 354.663 217.876C353.98 217.876 353.426 218.43 353.426 219.114C353.426 219.797 353.98 220.351 354.663 220.351Z" fill="black"/>
<path opacity="0.2" d="M79.2954 274.182C79.9787 274.182 80.5327 273.628 80.5327 272.944C80.5327 272.261 79.9787 271.707 79.2954 271.707C78.612 271.707 78.0581 272.261 78.0581 272.944C78.0581 273.628 78.612 274.182 79.2954 274.182Z" fill="black"/>
<path opacity="0.2" d="M186.966 298.213C187.65 298.213 188.204 297.659 188.204 296.976C188.204 296.293 187.65 295.739 186.966 295.739C186.283 295.739 185.729 296.293 185.729 296.976C185.729 297.659 186.283 298.213 186.966 298.213Z" fill="black"/>
<path d="M377.975 173.159C379.065 173.159 379.947 172.276 379.947 171.187C379.947 170.098 379.065 169.215 377.975 169.215C376.886 169.215 376.004 170.098 376.004 171.187C376.004 172.276 376.886 173.159 377.975 173.159Z" fill="black"/>
</g>
</g>
<defs>
<filter id="filter0_f_1_158" x="47.6312" y="-8.68709" width="451.774" height="425.989" filterUnits="userSpaceOnUse" color-interpolation-filters="sRGB">
<feFlood flood-opacity="0" result="BackgroundImageFix"/>
<feBlend mode="normal" in="SourceGraphic" in2="BackgroundImageFix" result="shape"/>
<feGaussianBlur stdDeviation="61.8652" result="effect1_foregroundBlur_1_158"/>
</filter>
<filter id="filter1_f_1_158" x="130.409" y="69.3215" width="302.715" height="302.715" filterUnits="userSpaceOnUse" color-interpolation-filters="sRGB">
<feFlood flood-opacity="0" result="BackgroundImageFix"/>
<feBlend mode="normal" in="SourceGraphic" in2="BackgroundImageFix" result="shape"/>
<feGaussianBlur stdDeviation="48.8868" result="effect1_foregroundBlur_1_158"/>
</filter>
<filter id="filter2_f_1_158" x="-87.6081" y="4.37574" width="380.939" height="350.48" filterUnits="userSpaceOnUse" color-interpolation-filters="sRGB">
<feFlood flood-opacity="0" result="BackgroundImageFix"/>
<feBlend mode="normal" in="SourceGraphic" in2="BackgroundImageFix" result="shape"/>
<feGaussianBlur stdDeviation="53.8007" result="effect1_foregroundBlur_1_158"/>
</filter>
<filter id="filter3_f_1_158" x="95.4712" y="-60.7261" width="339.348" height="316.533" filterUnits="userSpaceOnUse" color-interpolation-filters="sRGB">
<feFlood flood-opacity="0" result="BackgroundImageFix"/>
<feBlend mode="normal" in="SourceGraphic" in2="BackgroundImageFix" result="shape"/>
<feGaussianBlur stdDeviation="53.8007" result="effect1_foregroundBlur_1_158"/>
</filter>
<linearGradient id="paint0_linear_1_158" x1="323.683" y1="271.133" x2="317.906" y2="369.857" gradientUnits="userSpaceOnUse">
<stop stop-color="#FAFCFF"/>
<stop offset="1" stop-color="#C7CFD9" stop-opacity="0"/>
</linearGradient>
<linearGradient id="paint1_linear_1_158" x1="323.683" y1="271.133" x2="317.906" y2="369.857" gradientUnits="userSpaceOnUse">
<stop stop-color="#FAFCFF"/>
<stop offset="1" stop-color="#C7CFD9" stop-opacity="0"/>
</linearGradient>
<linearGradient id="paint2_linear_1_158" x1="268.009" y1="293.107" x2="285.935" y2="429.205" gradientUnits="userSpaceOnUse">
<stop stop-color="#FAFCFF"/>
<stop offset="1" stop-color="#D5DDE6" stop-opacity="0"/>
</linearGradient>
<linearGradient id="paint3_linear_1_158" x1="268.01" y1="293.106" x2="285.935" y2="429.205" gradientUnits="userSpaceOnUse">
<stop stop-color="#FAFCFF"/>
<stop offset="1" stop-color="#D5DDE6" stop-opacity="0"/>
</linearGradient>
<linearGradient id="paint4_linear_1_158" x1="233.044" y1="314.021" x2="231.033" y2="360.722" gradientUnits="userSpaceOnUse">
<stop stop-color="#C2D0E1"/>
<stop offset="1" stop-color="#C7CFD9" stop-opacity="0"/>
</linearGradient>
<linearGradient id="paint5_linear_1_158" x1="241.351" y1="278.589" x2="239.741" y2="334.966" gradientUnits="userSpaceOnUse">
<stop stop-color="#C2D0E1"/>
<stop offset="1" stop-color="#C7CFD9" stop-opacity="0"/>
</linearGradient>
<linearGradient id="paint6_linear_1_158" x1="266.227" y1="254.394" x2="265.204" y2="324.924" gradientUnits="userSpaceOnUse">
<stop stop-color="#F8FBFF"/>
<stop offset="1" stop-color="#C7CFD9" stop-opacity="0"/>
</linearGradient>
<linearGradient id="paint7_linear_1_158" x1="266.227" y1="254.394" x2="265.204" y2="324.924" gradientUnits="userSpaceOnUse">
<stop stop-color="#E6F2FF"/>
<stop offset="1" stop-color="#C7CFD9" stop-opacity="0"/>
</linearGradient>
<linearGradient id="paint8_linear_1_158" x1="273.519" y1="405.996" x2="270.033" y2="474.083" gradientUnits="userSpaceOnUse">
<stop stop-color="#C2D0E1"/>
<stop offset="1" stop-color="#C7CFD9" stop-opacity="0"/>
</linearGradient>
<linearGradient id="paint9_linear_1_158" x1="310.262" y1="354.848" x2="302.832" y2="467.043" gradientUnits="userSpaceOnUse">
<stop stop-color="#FAFCFF"/>
<stop offset="1" stop-color="#C7CFD9" stop-opacity="0"/>
</linearGradient>
<linearGradient id="paint10_linear_1_158" x1="273.518" y1="151.038" x2="273.518" y2="293.571" gradientUnits="userSpaceOnUse">
<stop stop-color="#029C92"/>
<stop offset="0.482872" stop-color="#00BDF8" stop-opacity="0.07"/>
<stop offset="1" stop-color="#F0FF94" stop-opacity="0.463739"/>
</linearGradient>
<linearGradient id="paint11_linear_1_158" x1="307.037" y1="215.37" x2="304.047" y2="323.44" gradientUnits="userSpaceOnUse">
<stop stop-color="white"/>
<stop offset="1" stop-color="white"/>
</linearGradient>
<clipPath id="clip0_1_158">
<rect width="471" height="522.967" fill="white" transform="translate(0 0.516602)"/>
</clipPath>
</defs>
</svg>
